%TF.GenerationSoftware,KiCad,Pcbnew,8.0.4*%
%TF.CreationDate,2024-11-11T23:36:28+01:00*%
%TF.ProjectId,Self balancing cube,53656c66-2062-4616-9c61-6e63696e6720,rev?*%
%TF.SameCoordinates,Original*%
%TF.FileFunction,Soldermask,Bot*%
%TF.FilePolarity,Negative*%
%FSLAX46Y46*%
G04 Gerber Fmt 4.6, Leading zero omitted, Abs format (unit mm)*
G04 Created by KiCad (PCBNEW 8.0.4) date 2024-11-11 23:36:28*
%MOMM*%
%LPD*%
G01*
G04 APERTURE LIST*
G04 Aperture macros list*
%AMRoundRect*
0 Rectangle with rounded corners*
0 $1 Rounding radius*
0 $2 $3 $4 $5 $6 $7 $8 $9 X,Y pos of 4 corners*
0 Add a 4 corners polygon primitive as box body*
4,1,4,$2,$3,$4,$5,$6,$7,$8,$9,$2,$3,0*
0 Add four circle primitives for the rounded corners*
1,1,$1+$1,$2,$3*
1,1,$1+$1,$4,$5*
1,1,$1+$1,$6,$7*
1,1,$1+$1,$8,$9*
0 Add four rect primitives between the rounded corners*
20,1,$1+$1,$2,$3,$4,$5,0*
20,1,$1+$1,$4,$5,$6,$7,0*
20,1,$1+$1,$6,$7,$8,$9,0*
20,1,$1+$1,$8,$9,$2,$3,0*%
G04 Aperture macros list end*
%ADD10RoundRect,0.250002X-1.699998X-1.699998X1.699998X-1.699998X1.699998X1.699998X-1.699998X1.699998X0*%
%ADD11RoundRect,0.250000X-0.600000X-0.725000X0.600000X-0.725000X0.600000X0.725000X-0.600000X0.725000X0*%
%ADD12O,1.700000X1.950000*%
%ADD13RoundRect,0.250000X0.725000X-0.600000X0.725000X0.600000X-0.725000X0.600000X-0.725000X-0.600000X0*%
%ADD14O,1.950000X1.700000*%
%ADD15C,6.000000*%
%ADD16RoundRect,0.270000X-0.630000X-0.630000X0.630000X-0.630000X0.630000X0.630000X-0.630000X0.630000X0*%
%ADD17C,2.220000*%
%ADD18RoundRect,0.250001X-0.799999X-0.799999X0.799999X-0.799999X0.799999X0.799999X-0.799999X0.799999X0*%
%ADD19RoundRect,0.250000X0.600000X0.725000X-0.600000X0.725000X-0.600000X-0.725000X0.600000X-0.725000X0*%
%ADD20R,2.000000X2.000000*%
%ADD21C,2.000000*%
%ADD22C,1.524000*%
G04 APERTURE END LIST*
D10*
%TO.C,J1*%
X127609600Y-113131600D03*
%TD*%
D11*
%TO.C,J8*%
X163848400Y-110032800D03*
D12*
X166348400Y-110032800D03*
X168848400Y-110032800D03*
X171348400Y-110032800D03*
X173848400Y-110032800D03*
X176348400Y-110032800D03*
X178848400Y-110032800D03*
X181348400Y-110032800D03*
%TD*%
D13*
%TO.C,J10*%
X171984000Y-90170000D03*
D14*
X171984000Y-87670000D03*
X171984000Y-85170000D03*
%TD*%
D15*
%TO.C,*%
X183896000Y-117144800D03*
%TD*%
D13*
%TO.C,J9*%
X164184000Y-90170000D03*
D14*
X164184000Y-87670000D03*
X164184000Y-85170000D03*
%TD*%
D13*
%TO.C,J11*%
X179784000Y-90170000D03*
D14*
X179784000Y-87670000D03*
X179784000Y-85170000D03*
%TD*%
D11*
%TO.C,J7*%
X163851600Y-103174800D03*
D12*
X166351600Y-103174800D03*
X168851600Y-103174800D03*
X171351600Y-103174800D03*
X173851600Y-103174800D03*
X176351600Y-103174800D03*
X178851600Y-103174800D03*
X181351600Y-103174800D03*
%TD*%
D16*
%TO.C,J14*%
X176936400Y-70053200D03*
%TD*%
D17*
%TO.C,U1*%
X125654200Y-103886000D03*
X115474200Y-103886000D03*
X125654200Y-88476000D03*
X115494200Y-88476000D03*
%TD*%
D15*
%TO.C,1*%
X117043200Y-71628000D03*
%TD*%
D11*
%TO.C,J6*%
X163851600Y-96316800D03*
D12*
X166351600Y-96316800D03*
X168851600Y-96316800D03*
X171351600Y-96316800D03*
X173851600Y-96316800D03*
X176351600Y-96316800D03*
X178851600Y-96316800D03*
X181351600Y-96316800D03*
%TD*%
D18*
%TO.C,J5*%
X118567200Y-112268000D03*
%TD*%
D10*
%TO.C,J2*%
X122631200Y-113131600D03*
%TD*%
%TO.C,J3*%
X122631200Y-117906800D03*
%TD*%
D15*
%TO.C,1*%
X117043200Y-117144800D03*
%TD*%
D19*
%TO.C,J12*%
X181003600Y-78943200D03*
D12*
X178503600Y-78943200D03*
X176003600Y-78943200D03*
X173503600Y-78943200D03*
%TD*%
D19*
%TO.C,J13*%
X167507600Y-78943200D03*
D12*
X165007600Y-78943200D03*
X162507600Y-78943200D03*
%TD*%
D15*
%TO.C,*%
X183896000Y-71678800D03*
%TD*%
D10*
%TO.C,J4*%
X127609600Y-117906800D03*
%TD*%
D20*
%TO.C,BZ1*%
X127955200Y-78130400D03*
D21*
X120355200Y-78130400D03*
%TD*%
D16*
%TO.C,J15*%
X174802800Y-70053200D03*
%TD*%
D22*
%TO.C,U2*%
X131482600Y-74296200D03*
X131482600Y-76836200D03*
X131482600Y-79376200D03*
X131482600Y-81916200D03*
X131482600Y-84456200D03*
X131482600Y-86996200D03*
X131482600Y-89536200D03*
X131482600Y-92076200D03*
X131482600Y-94616200D03*
X131482600Y-97156200D03*
X131482600Y-99696200D03*
X131482600Y-102236200D03*
X131482600Y-104776200D03*
X131482600Y-107316200D03*
X131482600Y-109856200D03*
X158152600Y-109856200D03*
X158152600Y-107316200D03*
X158152600Y-104776200D03*
X158152600Y-102236200D03*
X158152600Y-99696200D03*
X158152600Y-97156200D03*
X158152600Y-94616200D03*
X158152600Y-92076200D03*
X158152600Y-89536200D03*
X158152600Y-86996200D03*
X158152600Y-84456200D03*
X158152600Y-81916200D03*
X158152600Y-79376200D03*
X158152600Y-76836200D03*
X158152600Y-74296200D03*
%TD*%
D16*
%TO.C,J16*%
X172669200Y-70053200D03*
%TD*%
M02*
