M48
; DRILL file {KiCad 8.0.4} date 2024-11-11T23:36:30+0100
; FORMAT={-:-/ absolute / metric / decimal}
; #@! TF.CreationDate,2024-11-11T23:36:30+01:00
; #@! TF.GenerationSoftware,Kicad,Pcbnew,8.0.4
; #@! TF.FileFunction,Plated,1,2,PTH
FMAT,2
METRIC
; #@! TA.AperFunction,Plated,PTH,ViaDrill
T1C0.300
; #@! TA.AperFunction,Plated,PTH,ComponentDrill
T2C0.762
; #@! TA.AperFunction,Plated,PTH,ComponentDrill
T3C0.900
; #@! TA.AperFunction,Plated,PTH,ComponentDrill
T4C0.950
; #@! TA.AperFunction,Plated,PTH,ComponentDrill
T5C1.000
; #@! TA.AperFunction,Plated,PTH,ComponentDrill
T6C1.100
; #@! TA.AperFunction,Plated,PTH,ComponentDrill
T7C2.500
; #@! TA.AperFunction,Plated,PTH,ComponentDrill
T8C3.000
%
G90
G05
T1
X156.82Y-87.528
X160.172Y-93.624
X160.477Y-102.21
T2
X131.483Y-74.296
X131.483Y-76.836
X131.483Y-79.376
X131.483Y-81.916
X131.483Y-84.456
X131.483Y-86.996
X131.483Y-89.536
X131.483Y-92.076
X131.483Y-94.616
X131.483Y-97.156
X131.483Y-99.696
X131.483Y-102.236
X131.483Y-104.776
X131.483Y-107.316
X131.483Y-109.856
X158.153Y-74.296
X158.153Y-76.836
X158.153Y-79.376
X158.153Y-81.916
X158.153Y-84.456
X158.153Y-86.996
X158.153Y-89.536
X158.153Y-92.076
X158.153Y-94.616
X158.153Y-97.156
X158.153Y-99.696
X158.153Y-102.236
X158.153Y-104.776
X158.153Y-107.316
X158.153Y-109.856
T3
X172.669Y-70.053
X174.803Y-70.053
X176.936Y-70.053
T4
X162.508Y-78.943
X163.848Y-110.033
X163.852Y-96.317
X163.852Y-103.175
X164.184Y-85.17
X164.184Y-87.67
X164.184Y-90.17
X165.008Y-78.943
X166.348Y-110.033
X166.352Y-96.317
X166.352Y-103.175
X167.508Y-78.943
X168.848Y-110.033
X168.852Y-96.317
X168.852Y-103.175
X171.348Y-110.033
X171.352Y-96.317
X171.352Y-103.175
X171.984Y-85.17
X171.984Y-87.67
X171.984Y-90.17
X173.504Y-78.943
X173.848Y-110.033
X173.852Y-96.317
X173.852Y-103.175
X176.004Y-78.943
X176.348Y-110.033
X176.352Y-96.317
X176.352Y-103.175
X178.504Y-78.943
X178.848Y-110.033
X178.852Y-96.317
X178.852Y-103.175
X179.784Y-85.17
X179.784Y-87.67
X179.784Y-90.17
X181.004Y-78.943
X181.348Y-110.033
X181.352Y-96.317
X181.352Y-103.175
T5
X115.474Y-103.886
X115.494Y-88.476
X120.355Y-78.13
X125.654Y-88.476
X125.654Y-103.886
X127.955Y-78.13
T6
X118.567Y-112.268
T7
X122.631Y-113.132
X122.631Y-117.907
X127.61Y-113.132
X127.61Y-117.907
T8
X117.043Y-71.628
X117.043Y-117.145
X183.896Y-71.679
X183.896Y-117.145
M30
