%TF.GenerationSoftware,KiCad,Pcbnew,8.0.4*%
%TF.CreationDate,2024-11-11T23:36:28+01:00*%
%TF.ProjectId,Self balancing cube,53656c66-2062-4616-9c61-6e63696e6720,rev?*%
%TF.SameCoordinates,Original*%
%TF.FileFunction,Copper,L1,Top*%
%TF.FilePolarity,Positive*%
%FSLAX46Y46*%
G04 Gerber Fmt 4.6, Leading zero omitted, Abs format (unit mm)*
G04 Created by KiCad (PCBNEW 8.0.4) date 2024-11-11 23:36:28*
%MOMM*%
%LPD*%
G01*
G04 APERTURE LIST*
G04 Aperture macros list*
%AMRoundRect*
0 Rectangle with rounded corners*
0 $1 Rounding radius*
0 $2 $3 $4 $5 $6 $7 $8 $9 X,Y pos of 4 corners*
0 Add a 4 corners polygon primitive as box body*
4,1,4,$2,$3,$4,$5,$6,$7,$8,$9,$2,$3,0*
0 Add four circle primitives for the rounded corners*
1,1,$1+$1,$2,$3*
1,1,$1+$1,$4,$5*
1,1,$1+$1,$6,$7*
1,1,$1+$1,$8,$9*
0 Add four rect primitives between the rounded corners*
20,1,$1+$1,$2,$3,$4,$5,0*
20,1,$1+$1,$4,$5,$6,$7,0*
20,1,$1+$1,$6,$7,$8,$9,0*
20,1,$1+$1,$8,$9,$2,$3,0*%
%AMOutline4P*
0 Free polygon, 4 corners , with rotation*
0 The origin of the aperture is its center*
0 number of corners: always 4*
0 $1 to $8 corner X, Y*
0 $9 Rotation angle, in degrees counterclockwise*
0 create outline with 4 corners*
4,1,4,$1,$2,$3,$4,$5,$6,$7,$8,$1,$2,$9*%
G04 Aperture macros list end*
%TA.AperFunction,SMDPad,CuDef*%
%ADD10RoundRect,0.250000X0.325000X0.650000X-0.325000X0.650000X-0.325000X-0.650000X0.325000X-0.650000X0*%
%TD*%
%TA.AperFunction,ComponentPad*%
%ADD11RoundRect,0.250002X-1.699998X-1.699998X1.699998X-1.699998X1.699998X1.699998X-1.699998X1.699998X0*%
%TD*%
%TA.AperFunction,ComponentPad*%
%ADD12RoundRect,0.250000X-0.600000X-0.725000X0.600000X-0.725000X0.600000X0.725000X-0.600000X0.725000X0*%
%TD*%
%TA.AperFunction,ComponentPad*%
%ADD13O,1.700000X1.950000*%
%TD*%
%TA.AperFunction,SMDPad,CuDef*%
%ADD14RoundRect,0.250000X-0.325000X-0.650000X0.325000X-0.650000X0.325000X0.650000X-0.325000X0.650000X0*%
%TD*%
%TA.AperFunction,ComponentPad*%
%ADD15RoundRect,0.250000X0.725000X-0.600000X0.725000X0.600000X-0.725000X0.600000X-0.725000X-0.600000X0*%
%TD*%
%TA.AperFunction,ComponentPad*%
%ADD16O,1.950000X1.700000*%
%TD*%
%TA.AperFunction,ComponentPad*%
%ADD17C,6.000000*%
%TD*%
%TA.AperFunction,SMDPad,CuDef*%
%ADD18RoundRect,0.250000X0.650000X-0.325000X0.650000X0.325000X-0.650000X0.325000X-0.650000X-0.325000X0*%
%TD*%
%TA.AperFunction,ComponentPad*%
%ADD19RoundRect,0.270000X-0.630000X-0.630000X0.630000X-0.630000X0.630000X0.630000X-0.630000X0.630000X0*%
%TD*%
%TA.AperFunction,SMDPad,CuDef*%
%ADD20RoundRect,0.150000X-0.150000X0.587500X-0.150000X-0.587500X0.150000X-0.587500X0.150000X0.587500X0*%
%TD*%
%TA.AperFunction,ComponentPad*%
%ADD21C,2.220000*%
%TD*%
%TA.AperFunction,SMDPad,CuDef*%
%ADD22RoundRect,0.250000X-0.312500X-0.625000X0.312500X-0.625000X0.312500X0.625000X-0.312500X0.625000X0*%
%TD*%
%TA.AperFunction,ComponentPad*%
%ADD23RoundRect,0.250001X-0.799999X-0.799999X0.799999X-0.799999X0.799999X0.799999X-0.799999X0.799999X0*%
%TD*%
%TA.AperFunction,SMDPad,CuDef*%
%ADD24RoundRect,0.250000X0.312500X0.625000X-0.312500X0.625000X-0.312500X-0.625000X0.312500X-0.625000X0*%
%TD*%
%TA.AperFunction,SMDPad,CuDef*%
%ADD25Outline4P,-1.800000X-1.150000X1.800000X-0.550000X1.800000X0.550000X-1.800000X1.150000X270.000000*%
%TD*%
%TA.AperFunction,SMDPad,CuDef*%
%ADD26Outline4P,-1.800000X-1.150000X1.800000X-0.550000X1.800000X0.550000X-1.800000X1.150000X90.000000*%
%TD*%
%TA.AperFunction,ComponentPad*%
%ADD27RoundRect,0.250000X0.600000X0.725000X-0.600000X0.725000X-0.600000X-0.725000X0.600000X-0.725000X0*%
%TD*%
%TA.AperFunction,ComponentPad*%
%ADD28R,2.000000X2.000000*%
%TD*%
%TA.AperFunction,ComponentPad*%
%ADD29C,2.000000*%
%TD*%
%TA.AperFunction,ComponentPad*%
%ADD30C,1.524000*%
%TD*%
%TA.AperFunction,SMDPad,CuDef*%
%ADD31R,2.000000X2.000000*%
%TD*%
%TA.AperFunction,ViaPad*%
%ADD32C,0.600000*%
%TD*%
%TA.AperFunction,Conductor*%
%ADD33C,0.630000*%
%TD*%
%TA.AperFunction,Conductor*%
%ADD34C,2.540000*%
%TD*%
%TA.AperFunction,Conductor*%
%ADD35C,0.160000*%
%TD*%
%TA.AperFunction,Conductor*%
%ADD36C,0.200000*%
%TD*%
G04 APERTURE END LIST*
D10*
%TO.P,C1,1*%
%TO.N,Adc batt*%
X120448600Y-109067600D03*
%TO.P,C1,2*%
%TO.N,-BATT*%
X117498600Y-109067600D03*
%TD*%
D11*
%TO.P,J1,1,Pin_1*%
%TO.N,+BATT*%
X127609600Y-113131600D03*
%TD*%
D12*
%TO.P,J8,1,Pin_1*%
%TO.N,Net-(J8-Pin_1)*%
X163848400Y-110032800D03*
D13*
%TO.P,J8,2,Pin_2*%
%TO.N,Net-(J8-Pin_2)*%
X166348400Y-110032800D03*
%TO.P,J8,3,Pin_3*%
%TO.N,+3.3V*%
X168848400Y-110032800D03*
%TO.P,J8,4,Pin_4*%
%TO.N,Net-(J8-Pin_4)*%
X171348400Y-110032800D03*
%TO.P,J8,5,Pin_5*%
%TO.N,Net-(J8-Pin_5)*%
X173848400Y-110032800D03*
%TO.P,J8,6,Pin_6*%
%TO.N,Net-(J6-Pin_6)*%
X176348400Y-110032800D03*
%TO.P,J8,7,Pin_7*%
%TO.N,-BATT*%
X178848400Y-110032800D03*
%TO.P,J8,8,Pin_8*%
%TO.N,+BATT*%
X181348400Y-110032800D03*
%TD*%
D14*
%TO.P,C2,1*%
%TO.N,Push_Led*%
X164537600Y-73812400D03*
%TO.P,C2,2*%
%TO.N,-BATT*%
X167487600Y-73812400D03*
%TD*%
D15*
%TO.P,J10,1,Pin_1*%
%TO.N,Servo2*%
X171984000Y-90170000D03*
D16*
%TO.P,J10,2,Pin_2*%
%TO.N,+5V*%
X171984000Y-87670000D03*
%TO.P,J10,3,Pin_3*%
%TO.N,-BATT*%
X171984000Y-85170000D03*
%TD*%
D17*
%TO.P,,1*%
%TO.N,-BATT*%
X183896000Y-117144800D03*
%TD*%
D15*
%TO.P,J9,1,Pin_1*%
%TO.N,Servo1*%
X164184000Y-90170000D03*
D16*
%TO.P,J9,2,Pin_2*%
%TO.N,+5V*%
X164184000Y-87670000D03*
%TO.P,J9,3,Pin_3*%
%TO.N,-BATT*%
X164184000Y-85170000D03*
%TD*%
D15*
%TO.P,J11,1,Pin_1*%
%TO.N,Servo3*%
X179784000Y-90170000D03*
D16*
%TO.P,J11,2,Pin_2*%
%TO.N,+5V*%
X179784000Y-87670000D03*
%TO.P,J11,3,Pin_3*%
%TO.N,-BATT*%
X179784000Y-85170000D03*
%TD*%
D12*
%TO.P,J7,1,Pin_1*%
%TO.N,Net-(J7-Pin_1)*%
X163851600Y-103174800D03*
D13*
%TO.P,J7,2,Pin_2*%
%TO.N,Net-(J7-Pin_2)*%
X166351600Y-103174800D03*
%TO.P,J7,3,Pin_3*%
%TO.N,+3.3V*%
X168851600Y-103174800D03*
%TO.P,J7,4,Pin_4*%
%TO.N,Net-(J7-Pin_4)*%
X171351600Y-103174800D03*
%TO.P,J7,5,Pin_5*%
%TO.N,Net-(J7-Pin_5)*%
X173851600Y-103174800D03*
%TO.P,J7,6,Pin_6*%
%TO.N,Net-(J6-Pin_6)*%
X176351600Y-103174800D03*
%TO.P,J7,7,Pin_7*%
%TO.N,-BATT*%
X178851600Y-103174800D03*
%TO.P,J7,8,Pin_8*%
%TO.N,+BATT*%
X181351600Y-103174800D03*
%TD*%
D18*
%TO.P,R2,1*%
%TO.N,+BATT*%
X123901200Y-109374200D03*
%TO.P,R2,2*%
%TO.N,Adc batt*%
X123901200Y-106424200D03*
%TD*%
D19*
%TO.P,J14,1,Pin_1*%
%TO.N,+3.3V*%
X176936400Y-70053200D03*
%TD*%
D20*
%TO.P,Q1,1,B*%
%TO.N,Net-(Q1-B)*%
X120801300Y-84355700D03*
%TO.P,Q1,2,E*%
%TO.N,-BATT*%
X118901300Y-84355700D03*
%TO.P,Q1,3,C*%
%TO.N,Net-(BZ1--)*%
X119851300Y-86230700D03*
%TD*%
D21*
%TO.P,U1,1,IN+*%
%TO.N,+BATT*%
X125654200Y-103886000D03*
%TO.P,U1,2,IN-*%
%TO.N,-BATT*%
X115474200Y-103886000D03*
%TO.P,U1,3,OUT+*%
%TO.N,+5V*%
X125654200Y-88476000D03*
%TO.P,U1,4,OUT-*%
%TO.N,-BATT*%
X115494200Y-88476000D03*
%TD*%
D22*
%TO.P,R4,1*%
%TO.N,Push_Led*%
X164530100Y-71442800D03*
%TO.P,R4,2*%
%TO.N,+3.3V*%
X167455100Y-71442800D03*
%TD*%
D17*
%TO.P,1,1*%
%TO.N,-BATT*%
X117043200Y-71628000D03*
%TD*%
D12*
%TO.P,J6,1,Pin_1*%
%TO.N,Net-(J6-Pin_1)*%
X163851600Y-96316800D03*
D13*
%TO.P,J6,2,Pin_2*%
%TO.N,Net-(J6-Pin_2)*%
X166351600Y-96316800D03*
%TO.P,J6,3,Pin_3*%
%TO.N,+3.3V*%
X168851600Y-96316800D03*
%TO.P,J6,4,Pin_4*%
%TO.N,Net-(J6-Pin_4)*%
X171351600Y-96316800D03*
%TO.P,J6,5,Pin_5*%
%TO.N,Net-(J6-Pin_5)*%
X173851600Y-96316800D03*
%TO.P,J6,6,Pin_6*%
%TO.N,Net-(J6-Pin_6)*%
X176351600Y-96316800D03*
%TO.P,J6,7,Pin_7*%
%TO.N,-BATT*%
X178851600Y-96316800D03*
%TO.P,J6,8,Pin_8*%
%TO.N,+BATT*%
X181351600Y-96316800D03*
%TD*%
D23*
%TO.P,J5,1,Pin_1*%
%TO.N,-BATT*%
X118567200Y-112268000D03*
%TD*%
D11*
%TO.P,J2,1,Pin_1*%
%TO.N,Net-(J2-Pin_1)*%
X122631200Y-113131600D03*
%TD*%
%TO.P,J3,1,Pin_1*%
%TO.N,Net-(J2-Pin_1)*%
X122631200Y-117906800D03*
%TD*%
D10*
%TO.P,R3,1*%
%TO.N,Adc batt*%
X120448600Y-106730800D03*
%TO.P,R3,2*%
%TO.N,-BATT*%
X117498600Y-106730800D03*
%TD*%
D24*
%TO.P,R1,1*%
%TO.N,cmd buzzer*%
X129213800Y-85598000D03*
%TO.P,R1,2*%
%TO.N,Net-(Q1-B)*%
X126288800Y-85598000D03*
%TD*%
D17*
%TO.P,1,1*%
%TO.N,-BATT*%
X117043200Y-117144800D03*
%TD*%
D25*
%TO.P,D1,1,K*%
%TO.N,VCC*%
X116179600Y-79188400D03*
D26*
%TO.P,D1,2,A*%
%TO.N,+5V*%
X116179600Y-84988400D03*
%TD*%
D27*
%TO.P,J12,1,Pin_1*%
%TO.N,SDA*%
X181003600Y-78943200D03*
D13*
%TO.P,J12,2,Pin_2*%
%TO.N,SCL*%
X178503600Y-78943200D03*
%TO.P,J12,3,Pin_3*%
%TO.N,-BATT*%
X176003600Y-78943200D03*
%TO.P,J12,4,Pin_4*%
%TO.N,VCC*%
X173503600Y-78943200D03*
%TD*%
D27*
%TO.P,J13,1,Pin_1*%
%TO.N,-BATT*%
X167507600Y-78943200D03*
D13*
%TO.P,J13,2,Pin_2*%
%TO.N,WS2812*%
X165007600Y-78943200D03*
%TO.P,J13,3,Pin_3*%
%TO.N,VCC*%
X162507600Y-78943200D03*
%TD*%
D17*
%TO.P,,1*%
%TO.N,-BATT*%
X183896000Y-71678800D03*
%TD*%
D11*
%TO.P,J4,1,Pin_1*%
%TO.N,-BATT*%
X127609600Y-117906800D03*
%TD*%
D28*
%TO.P,BZ1,1,+*%
%TO.N,VCC*%
X127955200Y-78130400D03*
D29*
%TO.P,BZ1,2,-*%
%TO.N,Net-(BZ1--)*%
X120355200Y-78130400D03*
%TD*%
D19*
%TO.P,J15,1,Pin_1*%
%TO.N,Push_Led*%
X174802800Y-70053200D03*
%TD*%
D30*
%TO.P,U2,1,EN*%
%TO.N,unconnected-(U2-EN-Pad1)*%
X131482600Y-74296200D03*
%TO.P,U2,2,VP*%
%TO.N,unconnected-(U2-VP-Pad2)*%
X131482600Y-76836200D03*
%TO.P,U2,3,VN*%
%TO.N,Push_Led*%
X131482600Y-79376200D03*
%TO.P,U2,4,D34*%
%TO.N,Adc batt*%
X131482600Y-81916200D03*
%TO.P,U2,5,D35*%
%TO.N,Net-(J6-Pin_1)*%
X131482600Y-84456200D03*
%TO.P,U2,6,D32*%
%TO.N,Net-(J6-Pin_5)*%
X131482600Y-86996200D03*
%TO.P,U2,7,D33*%
%TO.N,Net-(J6-Pin_2)*%
X131482600Y-89536200D03*
%TO.P,U2,8,D25*%
%TO.N,Net-(J7-Pin_5)*%
X131482600Y-92076200D03*
%TO.P,U2,9,D26*%
%TO.N,Net-(J6-Pin_6)*%
X131482600Y-94616200D03*
%TO.P,U2,10,D27*%
%TO.N,cmd buzzer*%
X131482600Y-97156200D03*
%TO.P,U2,11,D14*%
%TO.N,Net-(J7-Pin_2)*%
X131482600Y-99696200D03*
%TO.P,U2,12,D12*%
%TO.N,Servo2*%
X131482600Y-102236200D03*
%TO.P,U2,13,D13*%
%TO.N,Net-(J7-Pin_1)*%
X131482600Y-104776200D03*
%TO.P,U2,14,GND*%
%TO.N,-BATT*%
X131482600Y-107316200D03*
%TO.P,U2,15,VIN*%
%TO.N,VCC*%
X131482600Y-109856200D03*
%TO.P,U2,16,3V3*%
%TO.N,+3.3V*%
X158152600Y-109856200D03*
%TO.P,U2,17,GND*%
%TO.N,unconnected-(U2-GND-Pad17)*%
X158152600Y-107316200D03*
%TO.P,U2,18,D15*%
%TO.N,Net-(J7-Pin_4)*%
X158152600Y-104776200D03*
%TO.P,U2,19,D2*%
%TO.N,Servo3*%
X158152600Y-102236200D03*
%TO.P,U2,20,D4*%
%TO.N,Net-(J6-Pin_4)*%
X158152600Y-99696200D03*
%TO.P,U2,21,RX2*%
%TO.N,Net-(J8-Pin_1)*%
X158152600Y-97156200D03*
%TO.P,U2,22,TX2*%
%TO.N,Net-(J8-Pin_2)*%
X158152600Y-94616200D03*
%TO.P,U2,23,D5*%
%TO.N,Net-(J8-Pin_4)*%
X158152600Y-92076200D03*
%TO.P,U2,24,D18*%
%TO.N,Net-(J8-Pin_5)*%
X158152600Y-89536200D03*
%TO.P,U2,25,D19*%
%TO.N,Servo1*%
X158152600Y-86996200D03*
%TO.P,U2,26,D21*%
%TO.N,SDA*%
X158152600Y-84456200D03*
%TO.P,U2,27,RX0*%
%TO.N,unconnected-(U2-RX0-Pad27)*%
X158152600Y-81916200D03*
%TO.P,U2,28,TX0*%
%TO.N,unconnected-(U2-TX0-Pad28)*%
X158152600Y-79376200D03*
%TO.P,U2,29,D22*%
%TO.N,SCL*%
X158152600Y-76836200D03*
%TO.P,U2,30,D23*%
%TO.N,WS2812*%
X158152600Y-74296200D03*
%TD*%
D31*
%TO.P,SW2,1,1*%
%TO.N,-BATT*%
X178701200Y-72948800D03*
%TO.P,SW2,2,2*%
%TO.N,Push_Led*%
X170701200Y-72948800D03*
%TD*%
D19*
%TO.P,J16,1,Pin_1*%
%TO.N,-BATT*%
X172669200Y-70053200D03*
%TD*%
D32*
%TO.N,Servo3*%
X160477200Y-102209600D03*
%TO.N,Net-(J6-Pin_1)*%
X156819600Y-87528400D03*
X160172400Y-93624400D03*
%TD*%
D33*
%TO.N,+BATT*%
X123901200Y-109374200D02*
X123901200Y-109423200D01*
D34*
X181559200Y-111861600D02*
X181559200Y-96316800D01*
D33*
X125526800Y-107748600D02*
X123901200Y-109374200D01*
X123901200Y-109423200D02*
X127609600Y-113131600D01*
D34*
X130454400Y-114452400D02*
X178968400Y-114452400D01*
X127609600Y-113131600D02*
X129133600Y-113131600D01*
D33*
X125654200Y-103886000D02*
X125526800Y-104013400D01*
X125526800Y-104013400D02*
X125526800Y-107748600D01*
D34*
X178968400Y-114452400D02*
X181559200Y-111861600D01*
X129133600Y-113131600D02*
X130454400Y-114452400D01*
D35*
%TO.N,-BATT*%
X118901300Y-84355700D02*
X118901300Y-82528500D01*
X167507600Y-73832400D02*
X167487600Y-73812400D01*
X117498600Y-109067600D02*
X117498600Y-105052600D01*
X114757200Y-82194400D02*
X114452400Y-82499200D01*
X118567200Y-82194400D02*
X114757200Y-82194400D01*
X117498600Y-105052600D02*
X116332000Y-103886000D01*
X167487600Y-73812400D02*
X168554400Y-74879200D01*
X178701200Y-72948800D02*
X178701200Y-72630800D01*
X118901300Y-82528500D02*
X118567200Y-82194400D01*
X178701200Y-73748400D02*
X179361600Y-73748400D01*
X114452400Y-82499200D02*
X114452400Y-87434200D01*
X167507600Y-78943200D02*
X167487600Y-78923200D01*
X114452400Y-87434200D02*
X115494200Y-88476000D01*
X168554400Y-74879200D02*
X176770800Y-74879200D01*
X167487600Y-78923200D02*
X167487600Y-73812400D01*
X176770800Y-74879200D02*
X178701200Y-72948800D01*
%TO.N,Net-(BZ1--)*%
X119851300Y-86230700D02*
X119837200Y-86216600D01*
X119837200Y-86216600D02*
X119837200Y-78496000D01*
X119837200Y-78496000D02*
X120202800Y-78130400D01*
%TO.N,Net-(Q1-B)*%
X124820200Y-84129400D02*
X126288800Y-85598000D01*
X121027600Y-84129400D02*
X124820200Y-84129400D01*
X120801300Y-84355700D02*
X121027600Y-84129400D01*
D33*
%TO.N,VCC*%
X116179600Y-77266800D02*
X116992400Y-76454000D01*
X116179600Y-79188400D02*
X116179600Y-77266800D01*
X126126400Y-76454000D02*
X127802800Y-78130400D01*
X160578800Y-71932800D02*
X162153600Y-73507600D01*
X129590800Y-71932800D02*
X160578800Y-71932800D01*
X162153600Y-73507600D02*
X162153600Y-78589200D01*
X116992400Y-76454000D02*
X126126400Y-76454000D01*
X127965200Y-77968000D02*
X127965200Y-73558400D01*
X127802800Y-78130400D02*
X127965200Y-77968000D01*
X162153600Y-78589200D02*
X162507600Y-78943200D01*
X127965200Y-73558400D02*
X129590800Y-71932800D01*
D35*
%TO.N,Adc batt*%
X131482600Y-81979000D02*
X131482600Y-81916200D01*
X131482600Y-81916200D02*
X130173800Y-81916200D01*
X128117600Y-83972400D02*
X128117600Y-88595200D01*
X120448600Y-109067600D02*
X120448600Y-106730800D01*
X123594600Y-106730800D02*
X123901200Y-106424200D01*
X128117600Y-88595200D02*
X123901200Y-92811600D01*
X123901200Y-92811600D02*
X123901200Y-106424200D01*
X120448600Y-106730800D02*
X123594600Y-106730800D01*
X130173800Y-81916200D02*
X128117600Y-83972400D01*
D34*
%TO.N,Net-(J2-Pin_1)*%
X122631200Y-113131600D02*
X122631200Y-117906800D01*
D35*
%TO.N,Net-(J6-Pin_6)*%
X176348400Y-96320000D02*
X176351600Y-96316800D01*
X176348400Y-110032800D02*
X176348400Y-96320000D01*
D36*
%TO.N,Net-(J6-Pin_4)*%
X156819600Y-93726000D02*
X156819600Y-95300800D01*
X171351600Y-95558000D02*
X170027600Y-94234000D01*
X157124400Y-93421200D02*
X156819600Y-93726000D01*
X159315200Y-98533600D02*
X158152600Y-99696200D01*
X158800800Y-95859600D02*
X159315200Y-96374000D01*
X171351600Y-96316800D02*
X171351600Y-95558000D01*
X156819600Y-95300800D02*
X157378400Y-95859600D01*
X170027600Y-94234000D02*
X159867600Y-94234000D01*
X159867600Y-94234000D02*
X159054800Y-93421200D01*
D35*
X158152600Y-99696200D02*
X157453400Y-99696200D01*
D36*
X157378400Y-95859600D02*
X158800800Y-95859600D01*
X159054800Y-93421200D02*
X157124400Y-93421200D01*
X159315200Y-96374000D02*
X159315200Y-98533600D01*
%TO.N,Net-(J7-Pin_1)*%
X131557600Y-104851200D02*
X131482600Y-104776200D01*
D35*
%TO.N,Net-(J7-Pin_2)*%
X166351600Y-102750000D02*
X166351600Y-103174800D01*
%TO.N,Net-(J8-Pin_4)*%
X158152600Y-92076200D02*
X158471800Y-92076200D01*
D36*
X171348400Y-110032800D02*
X169265600Y-112115600D01*
X156819600Y-112115600D02*
X156362400Y-111658400D01*
X156362400Y-92862400D02*
X157148600Y-92076200D01*
X157148600Y-92076200D02*
X158152600Y-92076200D01*
X156362400Y-111658400D02*
X156362400Y-92862400D01*
X169265600Y-112115600D02*
X156819600Y-112115600D01*
%TO.N,Net-(J8-Pin_2)*%
X166348400Y-108792000D02*
X165658800Y-108102400D01*
X159284600Y-94616200D02*
X158152600Y-94616200D01*
X165658800Y-108102400D02*
X161086800Y-108102400D01*
X161086800Y-108102400D02*
X160985200Y-108102400D01*
X166348400Y-110032800D02*
X166348400Y-108792000D01*
X158430800Y-94894400D02*
X158152600Y-94616200D01*
X159715200Y-106730800D02*
X159715200Y-95046800D01*
X161086800Y-108102400D02*
X159715200Y-106730800D01*
X159715200Y-95046800D02*
X159284600Y-94616200D01*
D35*
%TO.N,Net-(J8-Pin_5)*%
X173848400Y-110032800D02*
X171359200Y-112522000D01*
X155956000Y-91084400D02*
X157504200Y-89536200D01*
X171359200Y-112522000D02*
X156413200Y-112522000D01*
X156413200Y-112522000D02*
X155956000Y-112064800D01*
X173583600Y-110297600D02*
X173848400Y-110032800D01*
X157504200Y-89536200D02*
X158152600Y-89536200D01*
X155956000Y-112064800D02*
X155956000Y-91084400D01*
%TO.N,Net-(J8-Pin_1)*%
X157734000Y-108661200D02*
X156870400Y-107797600D01*
X158126000Y-97129600D02*
X158152600Y-97156200D01*
X160477200Y-110032800D02*
X159105600Y-108661200D01*
X156870400Y-97739200D02*
X157480000Y-97129600D01*
X163848400Y-110032800D02*
X160477200Y-110032800D01*
X159105600Y-108661200D02*
X157734000Y-108661200D01*
X157480000Y-97129600D02*
X158126000Y-97129600D01*
X156870400Y-107797600D02*
X156870400Y-97739200D01*
%TO.N,Servo1*%
X158217800Y-86996200D02*
X158152600Y-86996200D01*
D36*
%TO.N,Servo2*%
X159004000Y-85902800D02*
X133654800Y-85902800D01*
X133096000Y-86461600D02*
X133096000Y-101498400D01*
X133096000Y-101498400D02*
X132358200Y-102236200D01*
X161950400Y-88849200D02*
X159004000Y-85902800D01*
X132358200Y-102236200D02*
X131482600Y-102236200D01*
X165811200Y-88849200D02*
X161950400Y-88849200D01*
X167132000Y-90170000D02*
X165811200Y-88849200D01*
X133654800Y-85902800D02*
X133096000Y-86461600D01*
X171984000Y-90170000D02*
X167132000Y-90170000D01*
%TO.N,Servo3*%
X172618400Y-97231200D02*
X172618400Y-94538800D01*
X176987200Y-90170000D02*
X179784000Y-90170000D01*
X170078400Y-95250000D02*
X170078400Y-97231200D01*
X169519600Y-94691200D02*
X170078400Y-95250000D01*
X170586400Y-97739200D02*
X172110400Y-97739200D01*
X172110400Y-97739200D02*
X172618400Y-97231200D01*
D35*
X158152600Y-102236200D02*
X158551800Y-102236200D01*
D36*
X170078400Y-97231200D02*
X170586400Y-97739200D01*
X160477200Y-95046800D02*
X160832800Y-94691200D01*
X160832800Y-94691200D02*
X169519600Y-94691200D01*
X172618400Y-94538800D02*
X176987200Y-90170000D01*
X160477200Y-102209600D02*
X160477200Y-95046800D01*
D35*
%TO.N,SDA*%
X158152600Y-83807800D02*
X158152600Y-84456200D01*
X181003600Y-78943200D02*
X181003600Y-79752800D01*
X168605200Y-81584800D02*
X160375600Y-81584800D01*
X169926000Y-80264000D02*
X168605200Y-81584800D01*
X180492400Y-80264000D02*
X169926000Y-80264000D01*
X181003600Y-79752800D02*
X180492400Y-80264000D01*
X160375600Y-81584800D02*
X158152600Y-83807800D01*
%TO.N,SCL*%
X159512000Y-77872000D02*
X159512000Y-80010000D01*
X158152600Y-76836200D02*
X158471800Y-76836200D01*
X170180000Y-79451200D02*
X170180000Y-78130400D01*
X159509800Y-77874200D02*
X159512000Y-77872000D01*
X178104800Y-77673200D02*
X178503600Y-78072000D01*
X160680400Y-81178400D02*
X168452800Y-81178400D01*
X168452800Y-81178400D02*
X170180000Y-79451200D01*
X170637200Y-77673200D02*
X178104800Y-77673200D01*
X159512000Y-80010000D02*
X160680400Y-81178400D01*
X170180000Y-78130400D02*
X170637200Y-77673200D01*
X178503600Y-78072000D02*
X178503600Y-78943200D01*
X158471800Y-76836200D02*
X159509800Y-77874200D01*
%TO.N,WS2812*%
X159918400Y-76062000D02*
X158152600Y-74296200D01*
X165007600Y-78943200D02*
X165007600Y-79899200D01*
X159918400Y-79857600D02*
X159918400Y-76062000D01*
X165007600Y-79899200D02*
X164134800Y-80772000D01*
X164134800Y-80772000D02*
X160832800Y-80772000D01*
X160832800Y-80772000D02*
X159918400Y-79857600D01*
D36*
%TO.N,cmd buzzer*%
X129213800Y-85598000D02*
X129213800Y-94887400D01*
X129213800Y-94887400D02*
X131482600Y-97156200D01*
D35*
%TO.N,Net-(J6-Pin_1)*%
X160172400Y-93624400D02*
X159969200Y-93421200D01*
X131482600Y-84468200D02*
X131482600Y-84456200D01*
X156819600Y-87884000D02*
X156819600Y-87528400D01*
X159969200Y-88696800D02*
X159562800Y-88290400D01*
X157226000Y-88290400D02*
X156819600Y-87884000D01*
X131470400Y-84468400D02*
X131482600Y-84456200D01*
X131354400Y-84328000D02*
X131482600Y-84456200D01*
X159562800Y-88290400D02*
X157226000Y-88290400D01*
X159969200Y-93421200D02*
X159969200Y-88696800D01*
%TO.N,Push_Led*%
X163728400Y-80010000D02*
X163372800Y-80365600D01*
X164537600Y-73812400D02*
X164537600Y-71450300D01*
X132740400Y-73456800D02*
X132740400Y-78118400D01*
X164530100Y-70927900D02*
X165354000Y-70104000D01*
X164090900Y-71882000D02*
X164530100Y-71442800D01*
X170701200Y-72948800D02*
X170701200Y-72935600D01*
X133096000Y-73101200D02*
X132740400Y-73456800D01*
X170688000Y-70459600D02*
X170688000Y-72935600D01*
X132740400Y-78118400D02*
X131482600Y-79376200D01*
X170332400Y-70104000D02*
X170688000Y-70459600D01*
X164537600Y-71450300D02*
X164530100Y-71442800D01*
X171856400Y-72948800D02*
X174853600Y-69951600D01*
X131482600Y-79376200D02*
X131596200Y-79376200D01*
X170688000Y-72935600D02*
X170701200Y-72948800D01*
X164530100Y-71442800D02*
X164530100Y-70927900D01*
X160629600Y-80010000D02*
X160629600Y-73507600D01*
X160223200Y-73101200D02*
X133096000Y-73101200D01*
X164537600Y-73812400D02*
X163728400Y-74621600D01*
X160629600Y-73507600D02*
X160223200Y-73101200D01*
X170701200Y-72948800D02*
X169837600Y-73812400D01*
X163728400Y-74621600D02*
X163728400Y-80010000D01*
X165354000Y-70104000D02*
X170332400Y-70104000D01*
X164530100Y-73804900D02*
X164537600Y-73812400D01*
X163372800Y-80365600D02*
X160985200Y-80365600D01*
X160985200Y-80365600D02*
X160629600Y-80010000D01*
X170701200Y-72948800D02*
X171856400Y-72948800D01*
%TO.N,+3.3V*%
X168848400Y-96320000D02*
X168851600Y-96316800D01*
X158152600Y-109856200D02*
X158152600Y-111213400D01*
X168554400Y-74066400D02*
X168554400Y-72085200D01*
X158597600Y-111658400D02*
X168198800Y-111658400D01*
X168554400Y-72085200D02*
X167912000Y-71442800D01*
X168848400Y-111008800D02*
X168848400Y-110032800D01*
X168851600Y-103174800D02*
X170375600Y-104698800D01*
X179882800Y-71170800D02*
X178104800Y-71170800D01*
X182626000Y-91033600D02*
X182626000Y-75539600D01*
X176530000Y-74422000D02*
X168910000Y-74422000D01*
X181864000Y-91795600D02*
X182626000Y-91033600D01*
X176885600Y-70053200D02*
X176885600Y-74066400D01*
X182626000Y-75539600D02*
X180238400Y-73152000D01*
X175920400Y-91795600D02*
X181864000Y-91795600D01*
X170375600Y-104698800D02*
X174498000Y-104698800D01*
X167912000Y-71442800D02*
X167455100Y-71442800D01*
X178104800Y-71170800D02*
X176987200Y-70053200D01*
X168198800Y-111658400D02*
X168848400Y-111008800D01*
X176885600Y-74066400D02*
X176530000Y-74422000D01*
X174498000Y-104698800D02*
X175107600Y-104089200D01*
X175107600Y-92608400D02*
X175920400Y-91795600D01*
X168910000Y-74422000D02*
X168554400Y-74066400D01*
X158152600Y-111213400D02*
X158597600Y-111658400D01*
X180238400Y-71526400D02*
X179882800Y-71170800D01*
X175107600Y-104089200D02*
X175107600Y-92608400D01*
X168848400Y-110032800D02*
X168848400Y-96320000D01*
X180238400Y-73152000D02*
X180238400Y-71526400D01*
D33*
%TO.N,+5V*%
X164184000Y-87670000D02*
X179784000Y-87670000D01*
X118244800Y-88476000D02*
X116179600Y-86410800D01*
X125654200Y-88476000D02*
X125323600Y-88145400D01*
X125654200Y-88476000D02*
X118244800Y-88476000D01*
X116179600Y-86410800D02*
X116179600Y-84988400D01*
%TD*%
M02*
